<?xml version="1.0" encoding="UTF-8"?>
<svg width="100px" height="100px" viewBox="0 0 100 100" version="1.1" xmlns="http://www.w3.org/2000/svg" xmlns:xlink="http://www.w3.org/1999/xlink">
    <title>Chats</title>
    <g id="Chats" stroke="none" fill="none" fill-rule="evenodd" stroke-width="1">
        <g id="Layer_1" transform="translate(0, -0.0083)" fill="#FFFFFF">
            <path d="M93.2708333,27.5625 C88.9291667,23.2208333 83.1833333,20.8333333 77.075,20.8333333 L74.9041667,20.8333333 C74.425,15.5 72.1208333,10.5458333 68.2875,6.7125 C63.9583333,2.38333333 58.2041667,0 52.0833333,0 L22.9166667,0 C16.8125,0 11.0625,2.3875 6.72083333,6.72916667 C2.38333333,11.0666667 0,16.8208333 0,22.9291667 L0.0166666667,71.3625 C0.025,75.6541667 3.51666667,79.15 7.8,79.15 C8.56666667,79.15 9.325,79.0375 10.0583333,78.8125 C10.2583333,78.75 25.2958333,72.4541667 25.2958333,72.4541667 C27.0708333,83.3333333 36.5375,91.6666667 47.9125,91.6666667 L70.8291667,91.6666667 C70.8291667,91.6666667 89.7333333,99.5833333 89.9333333,99.6458333 C90.6666667,99.8708333 91.425,99.9833333 92.1916667,99.9833333 C96.4833333,99.9833333 99.9708333,96.4833333 99.9708333,92.1875 L99.9916667,43.7625 C99.9916667,37.6541667 97.6083333,31.9 93.2708333,27.5625 Z M12.5,22.9208333 C12.5,20.1583333 13.5875,17.5458333 15.5625,15.5666667 C17.5375,13.5875 20.15,12.5 22.9166667,12.5 L52.0833333,12.5 C54.8666667,12.5 57.4833333,13.5833333 59.45,15.55 C61.4166667,17.5166667 62.5,20.1375 62.5,22.9208333 L62.5,47.9166667 C62.5,53.6625 57.825,58.3333333 52.0833333,58.3333333 L27.9083333,58.3333333 C27.0791667,58.3333333 26.2583333,58.5 25.4916667,58.8208333 L12.5208333,64.2625 L12.5041667,22.9208333 L12.5,22.9208333 Z M87.475,85.0958333 L74.5041667,79.6541667 C73.7375,79.3333333 72.9166667,79.1666667 72.0875,79.1666667 L47.9125,79.1666667 C42.8833333,79.1666667 38.675,75.5833333 37.7041667,70.8333333 L52.0791667,70.8333333 C64.7166667,70.8333333 74.9958333,60.55 74.9958333,47.9166667 L74.9958333,33.3333333 L77.075,33.3333333 C79.8416667,33.3333333 82.4541667,34.425 84.4291667,36.4 C86.4083333,38.3791667 87.4958333,40.9916667 87.4916786,43.7541667 L87.475,85.0958333 Z" id="Shape" fill-rule="nonzero"></path>
        </g>
    </g>
</svg>