<svg width="19" height="22" viewBox="0 0 19 22" fill="none" xmlns="http://www.w3.org/2000/svg">
<path d="M12.4004 8.40039C12.9527 8.4004 13.4004 8.84811 13.4004 9.40039C13.4002 9.95249 12.9525 10.4004 12.4004 10.4004H5.2002C4.64812 10.4003 4.20041 9.95244 4.2002 9.40039C4.2002 8.84817 4.64799 8.40049 5.2002 8.40039H12.4004ZM15.6006 8.2002V3.40039C15.6006 2.62719 14.9734 2 14.2002 2H3.40039C2.6272 2 2.00001 2.62719 2 3.40039V17.7998C1.99999 18.573 2.62719 19.2002 3.40039 19.2002H9.40039C9.9525 19.2004 10.4004 19.648 10.4004 20.2002C10.4003 20.7522 9.95241 21.2 9.40039 21.2002H3.40039C1.52262 21.2002 -1.20401e-05 19.6776 0 17.7998V3.40039C1.20998e-05 1.52263 1.52263 0 3.40039 0H14.2002C16.078 0 17.6006 1.52262 17.6006 3.40039V8.2002C17.6005 8.75232 17.1527 9.20007 16.6006 9.2002C16.0484 9.2002 15.6007 8.75239 15.6006 8.2002ZM12.4004 4.7998C12.9526 4.79981 13.4003 5.24761 13.4004 5.7998C13.4004 6.35208 12.9527 6.7998 12.4004 6.7998H5.2002C4.64799 6.79971 4.2002 6.35203 4.2002 5.7998C4.2003 5.24767 4.64806 4.7999 5.2002 4.7998H12.4004Z" fill="#302EA3"/>
<path d="M14.457 15.0312V14.4531C14.457 12.918 15.3047 12 16.7734 12C17.4688 12 18.0859 12.2109 18.4688 12.582C18.7266 12.832 18.8828 13.1367 18.8828 13.3789C18.8828 13.6914 18.668 13.8984 18.3555 13.8984C18.1484 13.8984 17.9961 13.8203 17.793 13.6133C17.5 13.2539 17.2266 13.0898 16.8516 13.0898C16.1484 13.0898 15.75 13.6094 15.75 14.5117V14.9727C15.75 15.9336 16.1406 16.4531 16.8516 16.4531C17.2305 16.4531 17.5352 16.2891 17.8125 15.9375C18.0195 15.7227 18.1602 15.6484 18.3594 15.6484C18.6758 15.6484 18.8906 15.8594 18.8906 16.168C18.8906 16.4766 18.6797 16.8203 18.3398 17.0742C17.957 17.3711 17.418 17.5469 16.7734 17.5469C15.2812 17.5469 14.457 16.6328 14.457 15.0312Z" fill="#302EA3"/>
<path d="M9.08984 15.1055V14.4688C9.08984 12.9297 9.96484 12 11.4453 12C12.9258 12 13.7969 12.9336 13.7969 14.4688V15.1055C13.7969 16.6289 12.9258 17.5469 11.4453 17.5469C9.95703 17.5469 9.08984 16.625 9.08984 15.1055ZM10.3828 14.4609V15.1055C10.3828 15.9766 10.7773 16.4922 11.4453 16.4922C12.1094 16.4922 12.5039 15.9766 12.5039 15.1055V14.4609C12.5039 13.5781 12.1055 13.0547 11.4453 13.0547C10.7773 13.0547 10.3828 13.5781 10.3828 14.4609Z" fill="#302EA3"/>
<path d="M4 16.6914V12.8359C4 12.3555 4.26562 12.0977 4.75391 12.0977H6.09375C7.66406 12.0977 8.50391 13.0273 8.50391 14.7617C8.50391 16.5 7.66406 17.4297 6.09375 17.4297H4.75391C4.26562 17.4297 4 17.1719 4 16.6914ZM5.29297 16.4023H5.89453C6.78125 16.4023 7.18359 15.8945 7.18359 14.7617C7.18359 13.6328 6.78125 13.1211 5.89453 13.1211H5.29297V16.4023Z" fill="#302EA3"/>
</svg>
