<?xml version="1.0" encoding="UTF-8"?>
<svg width="512px" height="512px" viewBox="0 0 512 512" version="1.1" xmlns="http://www.w3.org/2000/svg" xmlns:xlink="http://www.w3.org/1999/xlink">
    <title>FormWhite</title>
    <g id="FormWhite" stroke="none" fill="none" fill-rule="evenodd" stroke-width="1">
        <g id="Layer_1" fill="#FFFFFF">
            <path d="M171.093333,405.333333 C209.066667,405.333333 245.333333,389.12 271.36,359.893333 L422.826667,178.133333 C458.026667,137.6 455.893333,75.9466667 417.92,37.76 L410.026667,29.8666667 C372.053333,-8.10666667 310.4,-10.24 270.293333,24.5333333 L87.2533333,177.28 C58.88,202.453333 42.6666667,238.72 42.6666667,276.693333 L42.6666667,359.893333 L9.38666667,393.173333 C-3.2,405.76 -3.2,426.026667 9.38666667,438.4 C15.5733333,444.586667 23.8933333,447.786667 32,447.786667 C40.1066667,447.786667 48.4266667,444.586667 54.6133333,438.4 L87.8933333,405.12 L171.093333,405.12 L171.093333,405.333333 Z M129.066667,225.92 L311.68,73.6 C327.04,60.3733333 350.293333,61.0133333 364.8,75.52 L372.693333,83.4133333 C386.986667,97.7066667 387.84,121.173333 374.186667,136.96 L222.933333,318.293333 C218.026667,323.626667 212.48,328.32 206.293333,331.946667 L116.266667,241.92 C119.68,235.946667 124.16,230.613333 129.066667,226.133333 L129.066667,225.92 Z M512,480 C512,497.706667 497.706667,512 480,512 L117.333333,512 C99.6266667,512 85.3333333,497.706667 85.3333333,480 C85.3333333,462.293333 99.6266667,448 117.333333,448 L480,448 C497.706667,448 512,462.293333 512,480 Z" id="Shape" fill-rule="nonzero"></path>
        </g>
    </g>
</svg>