<svg width="18" height="22" viewBox="0 0 18 22" fill="none" xmlns="http://www.w3.org/2000/svg">
<path d="M12.4004 8.40039C12.9527 8.4004 13.4004 8.84811 13.4004 9.40039C13.4002 9.95249 12.9525 10.4004 12.4004 10.4004H5.2002C4.64812 10.4003 4.20041 9.95244 4.2002 9.40039C4.2002 8.84817 4.64799 8.40049 5.2002 8.40039H12.4004ZM15.6006 8.2002V3.40039C15.6006 2.62719 14.9734 2 14.2002 2H3.40039C2.6272 2 2.00001 2.62719 2 3.40039V17.7998C1.99999 18.573 2.62719 19.2002 3.40039 19.2002H9.40039C9.9525 19.2004 10.4004 19.648 10.4004 20.2002C10.4003 20.7522 9.95241 21.2 9.40039 21.2002H3.40039C1.52262 21.2002 -1.20401e-05 19.6776 0 17.7998V3.40039C1.20998e-05 1.52263 1.52263 0 3.40039 0H14.2002C16.078 0 17.6006 1.52262 17.6006 3.40039V8.2002C17.6005 8.75232 17.1527 9.20007 16.6006 9.2002C16.0484 9.2002 15.6007 8.75239 15.6006 8.2002ZM12.4004 4.7998C12.9526 4.79981 13.4003 5.24761 13.4004 5.7998C13.4004 6.35208 12.9527 6.7998 12.4004 6.7998H5.2002C4.64799 6.79971 4.2002 6.35203 4.2002 5.7998C4.2003 5.24767 4.64806 4.7999 5.2002 4.7998H12.4004Z" fill="#E64346"/>
<path d="M14.7383 17.4688C14.3203 17.4688 14.0781 17.2109 14.0781 16.7734V12.8359C14.0781 12.3594 14.3398 12.0977 14.8242 12.0977H17.2109C17.5078 12.0977 17.7227 12.3164 17.7227 12.6211C17.7227 12.9219 17.5078 13.1328 17.2109 13.1328H15.3711V14.4141H17.0117C17.3203 14.4141 17.5234 14.6172 17.5234 14.918C17.5234 15.2188 17.3164 15.4219 17.0117 15.4219H15.3711V16.7734C15.3711 17.2188 15.1445 17.4688 14.7383 17.4688Z" fill="#E64346"/>
<path d="M8.79688 16.6914V12.8359C8.79688 12.3555 9.0625 12.0977 9.55078 12.0977H10.8906C12.4609 12.0977 13.3008 13.0273 13.3008 14.7617C13.3008 16.5 12.4609 17.4297 10.8906 17.4297H9.55078C9.0625 17.4297 8.79688 17.1719 8.79688 16.6914ZM10.0898 16.4023H10.6914C11.5781 16.4023 11.9805 15.8945 11.9805 14.7617C11.9805 13.6328 11.5781 13.1211 10.6914 13.1211H10.0898V16.4023Z" fill="#E64346"/>
<path d="M4.64062 17.4688C4.23047 17.4688 4 17.2188 4 16.7734V12.9805C4 12.3438 4.23438 12.0977 4.84375 12.0977H6.21484C7.38281 12.0977 8.12109 12.8086 8.12109 13.9062C8.12109 15.0742 7.37109 15.7266 6.14844 15.7266H5.28906V16.7734C5.28906 17.2148 5.05469 17.4688 4.64062 17.4688ZM5.29297 14.7656H5.87891C6.54688 14.7656 6.84375 14.5469 6.84375 13.9297C6.84375 13.3984 6.55078 13.0938 6.02344 13.0938H5.29297V14.7656Z" fill="#E64346"/>
</svg>
