<?xml version="1.0" encoding="UTF-8"?>
<svg width="512px" height="512px" viewBox="0 0 512 512" version="1.1" xmlns="http://www.w3.org/2000/svg" xmlns:xlink="http://www.w3.org/1999/xlink">
    <title>picture</title>
    <g id="picture" stroke="none" fill="none" fill-rule="evenodd" stroke-width="1">
        <g id="Bold" transform="translate(26, 26)" fill="#FFFFFF">
            <path d="M373.75,0 L86.25,0 C38.6373342,0.0528149859 0.0528149859,38.6373342 0,86.25 L0,373.75 C0.0528149859,421.362666 38.6373342,459.947185 86.25,460 L373.75,460 C421.362666,459.947185 459.947185,421.362666 460,373.75 L460,86.25 C459.947185,38.6373342 421.362666,0.0528149859 373.75,0 Z M86.25,57.5 L373.75,57.5 C389.628187,57.5 402.500026,70.3718134 402.500026,86.25 L402.500026,373.75 C402.510225,381.375778 399.474225,388.689779 394.066667,394.066667 L226.703333,226.703333 C196.765011,196.774051 148.234989,196.774051 118.296667,226.703333 L57.5,287.5 L57.5,86.25 C57.5,70.3718134 70.3718134,57.5 86.25,57.5 Z" id="Shape" fill-rule="nonzero"></path>
            <circle id="Oval" fill-rule="nonzero" cx="297.083333" cy="143.75" r="47.9166667"></circle>
        </g>
    </g>
</svg>